<?xml version="1.0" standalone="no"?><!DOCTYPE svg PUBLIC "-//W3C//DTD SVG 1.1//EN" "http://www.w3.org/Graphics/SVG/1.1/DTD/svg11.dtd"><svg t="1561547481664" class="icon" viewBox="0 0 1024 1024" version="1.1" xmlns="http://www.w3.org/2000/svg" p-id="1249" xmlns:xlink="http://www.w3.org/1999/xlink" width="200" height="200"><defs><style type="text/css"></style></defs><path d="M345.6 358.4c-15.36 0-25.6 10.24-25.6 25.6v256c0 15.36 10.24 25.6 25.6 25.6s25.6-10.24 25.6-25.6V384c0-15.36-10.24-25.6-25.6-25.6z m204.8 76.8c-15.36 0-25.6 10.24-25.6 25.6v153.6c0 15.36 10.24 25.6 25.6 25.6s25.6-10.24 25.6-25.6v-153.6c0-15.36-10.24-25.6-25.6-25.6z m179.2-332.8l-204.8 153.6-204.8-76.8-204.8 128v614.4l204.8-128 204.8 76.8 204.8-153.6 204.8 153.6V256l-204.8-153.6z m153.6 678.4l-153.6-115.2-204.8 153.6-204.8-76.8-153.6 97.28v-512l153.6-97.28 204.8 76.8 204.8-153.6 153.6 115.2v512z m-153.6-243.2c0 15.36 10.24 25.6 25.6 25.6s25.6-10.24 25.6-25.6v-204.8c0-15.36-10.24-25.6-25.6-25.6s-25.6 10.24-25.6 25.6v204.8z" p-id="1250" fill="#359bc7"></path></svg>